# xmcd
#
# Track frame offsets: 
#        182
#        18440
#        32057
#        48070
#        60412
#        72082
#        86657
#        98817
#        111232
#        131225
#
# Disc length: 1962 seconds
#
# Revision: 6
# Processed by: cddbd v1.5.2PL0 Copyright (c) Steve Scherf et al.
# Submitted via: ExactAudioCopy v0.99pb5
#
DISCID=7e07a80a
DTITLE=Ween - 12 Golden Country Greats
DYEAR=1996
DGENRE=Crossover
TTITLE0=I'm Holding You
TTITLE1=Japanese Cowboy
TTITLE2=Piss Up A Rope
TTITLE3=I Don't Wanna Leave You On The Farm
TTITLE4=Pretty Girl
TTITLE5=Powder Blue
TTITLE6=Mister Richard Smoker
TTITLE7=Help Me Scrape The Mucus Off My Brain
TTITLE8=You Were The Fool
TTITLE9=Fluffy
EXTD=YEAR: 1996
EXTT0=
EXTT1=
EXTT2=
EXTT3=
EXTT4=
EXTT5=
EXTT6=
EXTT7=
EXTT8=
EXTT9=
PLAYORDER=
